<mxfile host="app.diagrams.net" modified="2022-07-11T13:51:41.446Z" agent="5.0 (Windows NT 10.0; Win64; x64) AppleWebKit/537.36 (KHTML, like Gecko) Chrome/103.0.0.0 Safari/537.36" etag="9lqQ-qAAb5SMo6aCI8BS" version="20.0.4" type="github">
  <diagram id="9UdZhYqgFJdDEQGJYHmp" name="Page-1">
    <mxGraphModel dx="1038" dy="585" grid="1" gridSize="10" guides="1" tooltips="1" connect="1" arrows="1" fold="1" page="1" pageScale="1" pageWidth="827" pageHeight="1169" math="0" shadow="0">
      <root>
        <mxCell id="0" />
        <mxCell id="1" parent="0" />
        <mxCell id="RdUHwYg42IhuYxWd46T7-1" value="" style="whiteSpace=wrap;html=1;aspect=fixed;fillColor=#dae8fc;strokeColor=#6c8ebf;" vertex="1" parent="1">
          <mxGeometry x="90" y="110" width="330" height="330" as="geometry" />
        </mxCell>
        <mxCell id="RdUHwYg42IhuYxWd46T7-2" value="" style="rounded=0;whiteSpace=wrap;html=1;fillColor=#d5e8d4;strokeColor=#82b366;" vertex="1" parent="1">
          <mxGeometry x="90" y="110" width="130" height="100" as="geometry" />
        </mxCell>
        <mxCell id="RdUHwYg42IhuYxWd46T7-3" value="&lt;font style=&quot;font-size: 18px;&quot;&gt;一块很大的Disk(32KB)&lt;/font&gt;" style="text;html=1;align=center;verticalAlign=middle;resizable=0;points=[];autosize=1;strokeColor=none;fillColor=none;" vertex="1" parent="1">
          <mxGeometry x="85" y="50" width="200" height="40" as="geometry" />
        </mxCell>
        <mxCell id="RdUHwYg42IhuYxWd46T7-4" value="" style="curved=1;endArrow=classic;html=1;rounded=0;entryX=0.75;entryY=0;entryDx=0;entryDy=0;" edge="1" parent="1" source="RdUHwYg42IhuYxWd46T7-3" target="RdUHwYg42IhuYxWd46T7-1">
          <mxGeometry width="50" height="50" relative="1" as="geometry">
            <mxPoint x="430" y="70" as="sourcePoint" />
            <mxPoint x="480" y="20" as="targetPoint" />
            <Array as="points">
              <mxPoint x="320" y="60" />
            </Array>
          </mxGeometry>
        </mxCell>
        <mxCell id="RdUHwYg42IhuYxWd46T7-7" value="&lt;font color=&quot;#000000&quot; style=&quot;font-size: 14px;&quot;&gt;Dir区域(固定5KB)&lt;/font&gt;" style="text;html=1;align=center;verticalAlign=middle;resizable=0;points=[];autosize=1;strokeColor=none;fillColor=none;fontSize=18;fontColor=#FF3333;" vertex="1" parent="1">
          <mxGeometry x="95" y="130" width="130" height="40" as="geometry" />
        </mxCell>
        <mxCell id="RdUHwYg42IhuYxWd46T7-10" value="" style="rounded=0;whiteSpace=wrap;html=1;fontSize=14;fillColor=#f8cecc;strokeColor=#b85450;" vertex="1" parent="1">
          <mxGeometry x="520" y="40" width="170" height="400" as="geometry" />
        </mxCell>
        <mxCell id="RdUHwYg42IhuYxWd46T7-11" value="" style="rounded=0;whiteSpace=wrap;html=1;fontSize=14;fillColor=#e1d5e7;strokeColor=#9673a6;" vertex="1" parent="1">
          <mxGeometry x="520" y="40" width="170" height="80" as="geometry" />
        </mxCell>
        <mxCell id="RdUHwYg42IhuYxWd46T7-12" value="&lt;font style=&quot;&quot; color=&quot;#000000&quot;&gt;加载到内存中的Dir(5KB)&lt;/font&gt;" style="text;html=1;align=center;verticalAlign=middle;resizable=0;points=[];autosize=1;strokeColor=none;fillColor=none;fontSize=14;fontColor=#0000FF;" vertex="1" parent="1">
          <mxGeometry x="515" y="55" width="180" height="30" as="geometry" />
        </mxCell>
        <mxCell id="RdUHwYg42IhuYxWd46T7-13" value="" style="curved=1;endArrow=classic;html=1;rounded=0;fontSize=14;fontColor=#B266FF;exitX=1;exitY=1;exitDx=0;exitDy=0;entryX=0;entryY=0.75;entryDx=0;entryDy=0;" edge="1" parent="1" source="RdUHwYg42IhuYxWd46T7-2" target="RdUHwYg42IhuYxWd46T7-11">
          <mxGeometry width="50" height="50" relative="1" as="geometry">
            <mxPoint x="470" y="460" as="sourcePoint" />
            <mxPoint x="470" y="510" as="targetPoint" />
            <Array as="points">
              <mxPoint x="280" y="200" />
              <mxPoint x="360" y="170" />
              <mxPoint x="420" y="100" />
            </Array>
          </mxGeometry>
        </mxCell>
        <mxCell id="RdUHwYg42IhuYxWd46T7-14" value="Kernel区域(1KB)" style="whiteSpace=wrap;html=1;fontSize=14;fillColor=#fff2cc;strokeColor=#d6b656;" vertex="1" parent="1">
          <mxGeometry x="520" y="380" width="170" height="60" as="geometry" />
        </mxCell>
        <mxCell id="RdUHwYg42IhuYxWd46T7-15" value="&lt;font style=&quot;font-size: 18px;&quot;&gt;Memory(16KB)&lt;/font&gt;" style="text;html=1;align=center;verticalAlign=middle;resizable=0;points=[];autosize=1;strokeColor=none;fillColor=none;fontSize=14;fontColor=#000000;" vertex="1" parent="1">
          <mxGeometry x="375" y="30" width="140" height="40" as="geometry" />
        </mxCell>
        <mxCell id="RdUHwYg42IhuYxWd46T7-16" value="" style="curved=1;endArrow=classic;html=1;rounded=0;fontSize=18;fontColor=#000000;entryX=-0.012;entryY=0.364;entryDx=0;entryDy=0;entryPerimeter=0;" edge="1" parent="1" target="RdUHwYg42IhuYxWd46T7-10">
          <mxGeometry width="50" height="50" relative="1" as="geometry">
            <mxPoint x="440" y="80" as="sourcePoint" />
            <mxPoint x="440" y="270" as="targetPoint" />
            <Array as="points">
              <mxPoint x="440" y="120" />
              <mxPoint x="490" y="180" />
            </Array>
          </mxGeometry>
        </mxCell>
        <mxCell id="RdUHwYg42IhuYxWd46T7-17" value="" style="endArrow=classic;html=1;rounded=0;fontSize=18;fontColor=#000000;exitX=0.5;exitY=1;exitDx=0;exitDy=0;" edge="1" parent="1" source="RdUHwYg42IhuYxWd46T7-2">
          <mxGeometry width="50" height="50" relative="1" as="geometry">
            <mxPoint x="390" y="420" as="sourcePoint" />
            <mxPoint x="210" y="490" as="targetPoint" />
          </mxGeometry>
        </mxCell>
        <mxCell id="RdUHwYg42IhuYxWd46T7-18" value="&lt;font style=&quot;font-size: 14px;&quot; color=&quot;#ff3333&quot;&gt;char disk[32*1024];&lt;/font&gt;" style="text;html=1;align=center;verticalAlign=middle;resizable=0;points=[];autosize=1;strokeColor=none;fillColor=none;fontSize=18;fontColor=#000000;" vertex="1" parent="1">
          <mxGeometry x="115" y="70" width="140" height="40" as="geometry" />
        </mxCell>
        <mxCell id="RdUHwYg42IhuYxWd46T7-19" value="char mm[16*1024]" style="text;html=1;align=center;verticalAlign=middle;resizable=0;points=[];autosize=1;strokeColor=none;fillColor=none;fontSize=14;fontColor=#FF3333;" vertex="1" parent="1">
          <mxGeometry x="375" y="55" width="140" height="30" as="geometry" />
        </mxCell>
        <mxCell id="RdUHwYg42IhuYxWd46T7-20" value="" style="rounded=0;whiteSpace=wrap;html=1;fontSize=14;fillColor=#d5e8d4;strokeColor=#82b366;" vertex="1" parent="1">
          <mxGeometry x="85" y="500" width="300" height="160" as="geometry" />
        </mxCell>
        <mxCell id="RdUHwYg42IhuYxWd46T7-21" value="&lt;font color=&quot;#000000&quot;&gt;前4320字节&lt;/font&gt;" style="text;html=1;align=center;verticalAlign=middle;resizable=0;points=[];autosize=1;strokeColor=none;fillColor=none;fontSize=14;fontColor=#FF3333;" vertex="1" parent="1">
          <mxGeometry x="85" y="470" width="100" height="30" as="geometry" />
        </mxCell>
        <mxCell id="RdUHwYg42IhuYxWd46T7-27" value="&lt;span style=&quot;&quot;&gt;....共10个区域，以用户划分&lt;/span&gt;" style="text;html=1;align=center;verticalAlign=middle;resizable=0;points=[];autosize=1;strokeColor=none;fillColor=none;fontSize=14;fontColor=#000000;" vertex="1" parent="1">
          <mxGeometry x="195" y="540" width="190" height="30" as="geometry" />
        </mxCell>
        <mxCell id="RdUHwYg42IhuYxWd46T7-28" value="" style="curved=1;endArrow=classic;html=1;rounded=0;fontSize=14;fontColor=#000000;exitX=0.987;exitY=0.136;exitDx=0;exitDy=0;exitPerimeter=0;" edge="1" parent="1" source="RdUHwYg42IhuYxWd46T7-38">
          <mxGeometry width="50" height="50" relative="1" as="geometry">
            <mxPoint x="230" y="520" as="sourcePoint" />
            <mxPoint x="500" y="550" as="targetPoint" />
            <Array as="points">
              <mxPoint x="230" y="510" />
              <mxPoint x="470" y="520" />
            </Array>
          </mxGeometry>
        </mxCell>
        <mxCell id="RdUHwYg42IhuYxWd46T7-30" value="" style="rounded=0;whiteSpace=wrap;html=1;fontSize=14;fillColor=#ffe6cc;strokeColor=#d79b00;" vertex="1" parent="1">
          <mxGeometry x="530" y="480" width="160" height="390" as="geometry" />
        </mxCell>
        <mxCell id="RdUHwYg42IhuYxWd46T7-31" value="用户名" style="rounded=0;whiteSpace=wrap;html=1;fontSize=14;fillColor=#f5f5f5;strokeColor=#666666;fontColor=#333333;" vertex="1" parent="1">
          <mxGeometry x="550" y="490" width="120" height="40" as="geometry" />
        </mxCell>
        <mxCell id="RdUHwYg42IhuYxWd46T7-32" value="密码&lt;span style=&quot;color: rgba(0, 0, 0, 0); font-family: monospace; font-size: 0px; text-align: start;&quot;&gt;%3CmxGraphModel%3E%3Croot%3E%3CmxCell%20id%3D%220%22%2F%3E%3CmxCell%20id%3D%221%22%20parent%3D%220%22%2F%3E%3CmxCell%20id%3D%222%22%20value%3D%22%E7%94%A8%E6%88%B7%E5%90%8D%22%20style%3D%22rounded%3D0%3BwhiteSpace%3Dwrap%3Bhtml%3D1%3BfontSize%3D14%3BfillColor%3D%23f5f5f5%3BstrokeColor%3D%23666666%3BfontColor%3D%23333333%3B%22%20vertex%3D%221%22%20parent%3D%221%22%3E%3CmxGeometry%20x%3D%22550%22%20y%3D%22490%22%20width%3D%22120%22%20height%3D%2240%22%20as%3D%22geometry%22%2F%3E%3C%2FmxCell%3E%3C%2Froot%3E%3C%2FmxGraphModel%3E&lt;/span&gt;" style="rounded=0;whiteSpace=wrap;html=1;fontSize=14;fillColor=#f5f5f5;strokeColor=#666666;fontColor=#333333;" vertex="1" parent="1">
          <mxGeometry x="550" y="540" width="120" height="40" as="geometry" />
        </mxCell>
        <mxCell id="RdUHwYg42IhuYxWd46T7-33" value="共10个文件INFO" style="rounded=0;whiteSpace=wrap;html=1;fontSize=14;fillColor=#f5f5f5;strokeColor=#666666;fontColor=#333333;" vertex="1" parent="1">
          <mxGeometry x="550" y="590" width="120" height="270" as="geometry" />
        </mxCell>
        <mxCell id="RdUHwYg42IhuYxWd46T7-34" value="文件INFO1" style="rounded=1;whiteSpace=wrap;html=1;fontSize=14;fillColor=#e1d5e7;strokeColor=#9673a6;" vertex="1" parent="1">
          <mxGeometry x="560" y="600" width="90" height="40" as="geometry" />
        </mxCell>
        <mxCell id="RdUHwYg42IhuYxWd46T7-35" value="文件INFO2" style="rounded=1;whiteSpace=wrap;html=1;fontSize=14;fillColor=#e1d5e7;strokeColor=#9673a6;" vertex="1" parent="1">
          <mxGeometry x="560" y="650" width="90" height="40" as="geometry" />
        </mxCell>
        <mxCell id="RdUHwYg42IhuYxWd46T7-36" value="" style="rounded=1;whiteSpace=wrap;html=1;fontSize=14;fillColor=#ffe6cc;strokeColor=#d79b00;" vertex="1" parent="1">
          <mxGeometry x="90" y="510" width="30" height="140" as="geometry" />
        </mxCell>
        <mxCell id="RdUHwYg42IhuYxWd46T7-37" value="" style="rounded=1;whiteSpace=wrap;html=1;fontSize=14;fillColor=#ffe6cc;strokeColor=#d79b00;" vertex="1" parent="1">
          <mxGeometry x="130" y="510" width="30" height="140" as="geometry" />
        </mxCell>
        <mxCell id="RdUHwYg42IhuYxWd46T7-38" value="" style="rounded=1;whiteSpace=wrap;html=1;fontSize=14;fillColor=#ffe6cc;strokeColor=#d79b00;" vertex="1" parent="1">
          <mxGeometry x="170" y="510" width="30" height="140" as="geometry" />
        </mxCell>
      </root>
    </mxGraphModel>
  </diagram>
</mxfile>
